<svg xmlns="http://www.w3.org/2000/svg" viewBox="0 0 156 50" width="156" height="50" role="img" aria-labelledby="titulo descripcion"><title id="titulo">GitHub</title><desc id="descripcion">Enlace al perfil profesional de Frederick Lozano.</desc>
<defs><linearGradient id="fondo" x2="1" y2="1"><stop stop-color="#0b111e"/><stop offset="1" stop-color="#171329"/></linearGradient><linearGradient id="acento"><stop stop-color="#48e7ef"/><stop offset=".5" stop-color="#5495ff"/><stop offset="1" stop-color="#af87ff"/></linearGradient><radialGradient id="halo"><stop stop-color="#446bdd" stop-opacity=".28"/><stop offset="1" stop-color="#446bdd" stop-opacity="0"/></radialGradient><pattern id="rejilla" width="40" height="40" patternUnits="userSpaceOnUse"><path d="M40 0H0V40" fill="none" stroke="#75a5f5" stroke-opacity=".08"/></pattern><filter id="brillo" x="-50%" y="-50%" width="200%" height="200%"><feGaussianBlur stdDeviation="4"/></filter></defs>
<rect x="1" y="1" width="154" height="48" rx="12" fill="#10192b" stroke="#48e7ef" stroke-width="1"/>
<!-- Logo de marca: Simple Icons, licencia CC0. -->
<g transform="translate(14 13) scale(1.0)" fill="#48e7ef"><path xmlns="http://www.w3.org/2000/svg" d="M12 .297c-6.63 0-12 5.373-12 12 0 5.303 3.438 9.8 8.205 11.385.6.113.82-.258.82-.577 0-.285-.01-1.04-.015-2.04-3.338.724-4.042-1.61-4.042-1.61C4.422 18.07 3.633 17.7 3.633 17.7c-1.087-.744.084-.729.084-.729 1.205.084 1.838 1.236 1.838 1.236 1.07 1.835 2.809 1.305 3.495.998.108-.776.417-1.305.76-1.605-2.665-.3-5.466-1.332-5.466-5.93 0-1.31.465-2.38 1.235-3.22-.135-.303-.54-1.523.105-3.176 0 0 1.005-.322 3.3 1.23.96-.267 1.98-.399 3-.405 1.02.006 2.04.138 3 .405 2.28-1.552 3.285-1.23 3.285-1.23.645 1.653.24 2.873.12 3.176.765.84 1.23 1.91 1.23 3.22 0 4.61-2.805 5.625-5.475 5.92.42.36.81 1.096.81 2.22 0 1.606-.015 2.896-.015 3.286 0 .315.21.69.825.57C20.565 22.092 24 17.592 24 12.297c0-6.627-5.373-12-12-12"/></g>
<text id="texto-000" x="49" y="32" font-family="Arial, Helvetica, sans-serif" font-size="18" font-weight="700" fill="#f1f6ff" text-anchor="start">GitHub</text>
</svg>
