<svg xmlns="http://www.w3.org/2000/svg" viewBox="0 0 134 44" width="134" height="44" role="img" aria-labelledby="titulo descripcion"><title id="titulo">Android</title><desc id="descripcion">Android. Tecnología utilizada; no representa un porcentaje ni nivel de dominio.</desc>
<defs><linearGradient id="fondo" x2="1" y2="1"><stop stop-color="#0b111e"/><stop offset="1" stop-color="#171329"/></linearGradient><linearGradient id="acento"><stop stop-color="#48e7ef"/><stop offset=".5" stop-color="#5495ff"/><stop offset="1" stop-color="#af87ff"/></linearGradient><radialGradient id="halo"><stop stop-color="#446bdd" stop-opacity=".28"/><stop offset="1" stop-color="#446bdd" stop-opacity="0"/></radialGradient><pattern id="rejilla" width="40" height="40" patternUnits="userSpaceOnUse"><path d="M40 0H0V40" fill="none" stroke="#75a5f5" stroke-opacity=".08"/></pattern><filter id="brillo" x="-50%" y="-50%" width="200%" height="200%"><feGaussianBlur stdDeviation="4"/></filter></defs>
<rect x="1" y="1" width="132" height="42" rx="12" fill="#10192b" stroke="#40516f" stroke-width="1"/>
<!-- Logo de marca: Simple Icons, licencia CC0. -->
<g transform="translate(12 11) scale(0.9166666666666666)" fill="#86e3bd"><path xmlns="http://www.w3.org/2000/svg" d="M18.4395 5.5586c-.675 1.1664-1.352 2.3318-2.0274 3.498-.0366-.0155-.0742-.0286-.1113-.043-1.8249-.6957-3.484-.8-4.42-.787-1.8551.0185-3.3544.4643-4.2597.8203-.084-.1494-1.7526-3.021-2.0215-3.4864a1.1451 1.1451 0 0 0-.1406-.1914c-.3312-.364-.9054-.4859-1.379-.203-.475.282-.7136.9361-.3886 1.5019 1.9466 3.3696-.0966-.2158 1.9473 3.3593.0172.031-.4946.2642-1.3926 1.0177C2.8987 12.176.452 14.772 0 18.9902h24c-.119-1.1108-.3686-2.099-.7461-3.0683-.7438-1.9118-1.8435-3.2928-2.7402-4.1836a12.1048 12.1048 0 0 0-2.1309-1.6875c.6594-1.122 1.312-2.2559 1.9649-3.3848.2077-.3615.1886-.7956-.0079-1.1191a1.1001 1.1001 0 0 0-.8515-.5332c-.5225-.0536-.9392.3128-1.0488.5449zm-.0391 8.461c.3944.5926.324 1.3306-.1563 1.6503-.4799.3197-1.188.0985-1.582-.4941-.3944-.5927-.324-1.3307.1563-1.6504.4727-.315 1.1812-.1086 1.582.4941zM7.207 13.5273c.4803.3197.5506 1.0577.1563 1.6504-.394.5926-1.1038.8138-1.584.4941-.48-.3197-.5503-1.0577-.1563-1.6504.4008-.6021 1.1087-.8106 1.584-.4941z"/></g>
<text id="texto-000" x="44" y="28" font-family="Arial, Helvetica, sans-serif" font-size="15" font-weight="700" fill="#f1f6ff" text-anchor="start">Android</text>
</svg>
