<svg xmlns="http://www.w3.org/2000/svg" viewBox="0 0 124 44" width="124" height="44" role="img" aria-labelledby="titulo descripcion"><title id="titulo">Next.js</title><desc id="descripcion">Next.js. Tecnología utilizada; no representa un porcentaje ni nivel de dominio.</desc>
<defs><linearGradient id="fondo" x2="1" y2="1"><stop stop-color="#0b111e"/><stop offset="1" stop-color="#171329"/></linearGradient><linearGradient id="acento"><stop stop-color="#48e7ef"/><stop offset=".5" stop-color="#5495ff"/><stop offset="1" stop-color="#af87ff"/></linearGradient><radialGradient id="halo"><stop stop-color="#446bdd" stop-opacity=".28"/><stop offset="1" stop-color="#446bdd" stop-opacity="0"/></radialGradient><pattern id="rejilla" width="40" height="40" patternUnits="userSpaceOnUse"><path d="M40 0H0V40" fill="none" stroke="#75a5f5" stroke-opacity=".08"/></pattern><filter id="brillo" x="-50%" y="-50%" width="200%" height="200%"><feGaussianBlur stdDeviation="4"/></filter></defs>
<rect x="1" y="1" width="122" height="42" rx="12" fill="#10192b" stroke="#40516f" stroke-width="1"/>
<!-- Logo de marca: Simple Icons, licencia CC0. -->
<g transform="translate(12 11) scale(0.9166666666666666)" fill="#f1f6ff"><path xmlns="http://www.w3.org/2000/svg" d="M18.665 21.978C16.758 23.255 14.465 24 12 24 5.377 24 0 18.623 0 12S5.377 0 12 0s12 5.377 12 12c0 3.583-1.574 6.801-4.067 9.001L9.219 7.2H7.2v9.596h1.615V9.251l9.85 12.727Zm-3.332-8.533 1.6 2.061V7.2h-1.6v6.245Z"/></g>
<text id="texto-000" x="44" y="28" font-family="Arial, Helvetica, sans-serif" font-size="15" font-weight="700" fill="#f1f6ff" text-anchor="start">Next.js</text>
</svg>
