<svg xmlns="http://www.w3.org/2000/svg" viewBox="0 0 110 44" width="110" height="44" role="img" aria-labelledby="titulo descripcion"><title id="titulo">Tauri</title><desc id="descripcion">Tauri. Tecnología utilizada; no representa un porcentaje ni nivel de dominio.</desc>
<defs><linearGradient id="fondo" x2="1" y2="1"><stop stop-color="#0b111e"/><stop offset="1" stop-color="#171329"/></linearGradient><linearGradient id="acento"><stop stop-color="#48e7ef"/><stop offset=".5" stop-color="#5495ff"/><stop offset="1" stop-color="#af87ff"/></linearGradient><radialGradient id="halo"><stop stop-color="#446bdd" stop-opacity=".28"/><stop offset="1" stop-color="#446bdd" stop-opacity="0"/></radialGradient><pattern id="rejilla" width="40" height="40" patternUnits="userSpaceOnUse"><path d="M40 0H0V40" fill="none" stroke="#75a5f5" stroke-opacity=".08"/></pattern><filter id="brillo" x="-50%" y="-50%" width="200%" height="200%"><feGaussianBlur stdDeviation="4"/></filter></defs>
<rect x="1" y="1" width="108" height="42" rx="12" fill="#10192b" stroke="#40516f" stroke-width="1"/>
<!-- Logo de marca: Simple Icons, licencia CC0. -->
<g transform="translate(12 11) scale(0.9166666666666666)" fill="#f4d57c"><path xmlns="http://www.w3.org/2000/svg" d="M13.912 0a8.72 8.72 0 0 0-8.308 6.139c1.05-.515 2.18-.845 3.342-.976 2.415-3.363 7.4-3.412 9.88-.097 2.48 3.315 1.025 8.084-2.883 9.45a6.131 6.131 0 0 1-.3 2.762 8.72 8.72 0 0 0 3.01-1.225A8.72 8.72 0 0 0 13.913 0zm.082 6.451a2.284 2.284 0 1 0-.15 4.566 2.284 2.284 0 0 0 .15-4.566zm-5.629.27a8.72 8.72 0 0 0-3.031 1.235 8.72 8.72 0 1 0 13.06 9.9131 10.173 10.174 0 0 1-3.343.965 6.125 6.125 0 1 1-7.028-9.343 6.114 6.115 0 0 1 .342-2.772zm1.713 6.27a2.284 2.284 0 0 0-2.284 2.283 2.284 2.284 0 0 0 2.284 2.284 2.284 2.284 0 0 0 2.284-2.284 2.284 2.284 0 0 0-2.284-2.284z"/></g>
<text id="texto-000" x="44" y="28" font-family="Arial, Helvetica, sans-serif" font-size="15" font-weight="700" fill="#f1f6ff" text-anchor="start">Tauri</text>
</svg>
