<svg xmlns="http://www.w3.org/2000/svg" viewBox="0 0 1280 620" width="1280" height="620" role="img" aria-labelledby="titulo descripcion"><title id="titulo">Frederick Lozano — Ingeniero Mecatrónico</title><desc id="descripcion">Automatización, robótica, software, IA y sistemas embebidos. Diseño sistemas donde el hardware, el control y el software trabajan como una sola ingeniería. Circuitos, microcontrolador y brazo robótico como representación conceptual.</desc>
<defs><linearGradient id="fondo" x2="1" y2="1"><stop stop-color="#0b111e"/><stop offset="1" stop-color="#171329"/></linearGradient><linearGradient id="acento"><stop stop-color="#48e7ef"/><stop offset=".5" stop-color="#5495ff"/><stop offset="1" stop-color="#af87ff"/></linearGradient><radialGradient id="halo"><stop stop-color="#446bdd" stop-opacity=".28"/><stop offset="1" stop-color="#446bdd" stop-opacity="0"/></radialGradient><pattern id="rejilla" width="40" height="40" patternUnits="userSpaceOnUse"><path d="M40 0H0V40" fill="none" stroke="#75a5f5" stroke-opacity=".08"/></pattern><filter id="brillo" x="-50%" y="-50%" width="200%" height="200%"><feGaussianBlur stdDeviation="4"/></filter></defs>
<rect x="1" y="1" width="1278" height="618" rx="24" fill="url(#fondo)" stroke="#334568" stroke-width="1"/>
<rect x="1" y="1" width="1278" height="618" rx="24" fill="url(#rejilla)" stroke="none" stroke-width="1"/>
<ellipse cx="1062.3999999999999" cy="136.4" rx="614.4" ry="434.0" fill="url(#halo)"/>
<path d="M26 2H1254" stroke="url(#acento)" stroke-width="3"/>
<text id="texto-000" x="64" y="58" font-family="Arial, Helvetica, sans-serif" font-size="20" font-weight="700" fill="#b8c7d9" text-anchor="start">INGENIERÍA QUE CONECTA</text>
<rect x="1188" y="27" width="54" height="45" rx="10" fill="#17273d" stroke="#4e6eab" stroke-width="1"/>
<text id="texto-001" x="1215" y="58" font-family="Arial, Helvetica, sans-serif" font-size="21" font-weight="700" fill="#48e7ef" text-anchor="middle">FL</text>
<text id="texto-002" x="64" y="169" font-family="Arial, Helvetica, sans-serif" font-size="91" font-weight="700" fill="#f1f6ff" text-anchor="start">FREDERICK</text>
<text id="texto-003" x="64" y="267" font-family="Arial, Helvetica, sans-serif" font-size="108" font-weight="700" fill="#f1f6ff" text-anchor="start">LOZANO</text>
<text id="texto-004" x="64" y="329" font-family="Arial, Helvetica, sans-serif" font-size="34" font-weight="700" fill="#48e7ef" text-anchor="start">INGENIERO MECATRÓNICO</text>
<text id="texto-005" x="64" y="388" font-family="Arial, Helvetica, sans-serif" font-size="23" font-weight="700" fill="#b8c7d9" text-anchor="start">AUTOMATIZACIÓN · ROBÓTICA · SOFTWARE</text>
<text id="texto-006" x="64" y="419" font-family="Arial, Helvetica, sans-serif" font-size="23" font-weight="700" fill="#b8c7d9" text-anchor="start">IA · SISTEMAS EMBEBIDOS</text>
<text id="texto-007" x="64" y="481" font-family="Arial, Helvetica, sans-serif" font-size="29" font-weight="400" fill="#f1f6ff" text-anchor="start">Diseño sistemas donde el hardware, el control y el</text>
<text id="texto-008" x="64" y="518" font-family="Arial, Helvetica, sans-serif" font-size="29" font-weight="400" fill="#f1f6ff" text-anchor="start">software trabajan como una sola ingeniería.</text>
<g transform="translate(806 157) scale(1)">
<rect x="0" y="0" width="420" height="344" rx="22" fill="#0a1323" stroke="#335486" stroke-width="1"/>
<text id="texto-009" x="24" y="37" font-family="Arial, Helvetica, sans-serif" font-size="18" font-weight="700" fill="#48e7ef" text-anchor="start">SEÑAL · CONTROL · ACCIÓN</text>
<path d="M20 75L390 75" stroke="#497097" stroke-width="1" opacity="0.28" fill="none"/>
<path d="M20 112L390 112" stroke="#497097" stroke-width="1" opacity="0.28" fill="none"/>
<path d="M20 149L390 149" stroke="#497097" stroke-width="1" opacity="0.28" fill="none"/>
<path d="M20 132H61l15-34 20 56 18-32h40l24-29 20 40h38" stroke="#48e7ef" stroke-width="3" fill="none"/>
<rect x="23" y="185" width="80" height="80" rx="12" fill="#121e35" stroke="#5495ff" stroke-width="2"/>
<g transform="translate(37 199) scale(0.8125)" fill="none" stroke="#48e7ef" stroke-width="2.6" stroke-linecap="round" stroke-linejoin="round"><rect x="14" y="14" width="36" height="36" rx="6"/><rect x="23" y="23" width="18" height="18" rx="3"/><path d="M22 4v10m10-10v10m10-10v10M22 50v10m10-10v10m10-10v10M4 22h10M4 32h10M4 42h10M50 22h10M50 32h10M50 42h10"/></g>
<path d="M103 209h58l32-34h57M103 242h50l25 26h93" fill="none" stroke="#5495ff" stroke-width="2"/>
<path d="M252 300h136M275 299v-21h70v21" stroke="#759be3" stroke-width="7" fill="none" stroke-linejoin="round"/>
<path d="m309 274-65-61 50-68 57 41 33-30" fill="none" stroke="#354e75" stroke-width="27" stroke-linecap="round" stroke-linejoin="round"/><path d="m309 274-65-61 50-68 57 41 33-30" fill="none" stroke="url(#acento)" stroke-width="13" stroke-linecap="round" stroke-linejoin="round"/>
<circle cx="244" cy="213" r="17" fill="#14273e" stroke="#8bc5ff" stroke-width="3"/><circle cx="244" cy="213" r="6" fill="#48e7ef"/>
<circle cx="294" cy="145" r="17" fill="#14273e" stroke="#8bc5ff" stroke-width="3"/><circle cx="294" cy="145" r="6" fill="#48e7ef"/>
<circle cx="351" cy="186" r="17" fill="#14273e" stroke="#8bc5ff" stroke-width="3"/><circle cx="351" cy="186" r="6" fill="#48e7ef"/>
<path d="m385 154 12-16m-4-6 12 12m-15-22 18 18" stroke="#af87ff" stroke-width="5" fill="none" stroke-linecap="round"/>
<text id="texto-010" x="24" y="306" font-family="Arial, Helvetica, sans-serif" font-size="16" font-weight="400" fill="#b8c7d9" text-anchor="start">ENTRADA</text>
<text id="texto-011" x="302" y="329" font-family="Arial, Helvetica, sans-serif" font-size="16" font-weight="400" fill="#b8c7d9" text-anchor="start">RESPUESTA</text>
</g>
<text id="texto-012" x="824" y="558" font-family="Arial, Helvetica, sans-serif" font-size="20" font-weight="700" fill="#af87ff" text-anchor="start">SISTEMAS FÍSICOS + SOFTWARE</text>
<path d="M785 126h-28v38M1238 126h-27M1240 571h-33" stroke="#55739b" stroke-width="2" fill="none"/>
</svg>
